<?xml version="1.0" encoding="UTF-8"?>
<svg id="cart-add" xmlns="http://www.w3.org/2000/svg" viewBox="0 0 24 24">
  <defs>
    <style>
      .cls-1 {
        fill: #000;
        stroke-width: 0px;
      }
    </style>
  </defs>
  <path class="cls-1" d="M21.43,10.12c-.25-.11-.55,0-.66.25l-1.82,4.06c-.19.64-.77,1.07-1.44,1.07h-7.02c-.67,0-1.25-.43-1.45-1.11l-2.31-5.89h6.27c.28,0,.5-.22.5-.5s-.22-.5-.5-.5h-6.66l-.39-1.03c-.22-.58-.78-.97-1.4-.97h-1.55c-.28,0-.5.22-.5.5s.22.5.5.5h1.55c.21,0,.39.13.47.32l.52,1.36s0,0,0,0c0,0,0,0,0,0l2.56,6.54c.32,1.07,1.28,1.78,2.4,1.78h7.02c1.11,0,2.08-.72,2.37-1.72l1.8-4c.11-.25,0-.55-.25-.66Z"/>
  <path class="cls-1" d="M11,17.5c-.83,0-1.5.67-1.5,1.5s.67,1.5,1.5,1.5,1.5-.67,1.5-1.5-.67-1.5-1.5-1.5ZM11,19.5c-.28,0-.5-.22-.5-.5s.22-.5.5-.5.5.22.5.5-.22.5-.5.5Z"/>
  <path class="cls-1" d="M17,17.5c-.83,0-1.5.67-1.5,1.5s.67,1.5,1.5,1.5,1.5-.67,1.5-1.5-.67-1.5-1.5-1.5ZM17,19.5c-.28,0-.5-.22-.5-.5s.22-.5.5-.5.5.22.5.5-.22.5-.5.5Z"/>
  <path class="cls-1" d="M18,10.5c1.93,0,3.5-1.57,3.5-3.5s-1.57-3.5-3.5-3.5-3.5,1.57-3.5,3.5,1.57,3.5,3.5,3.5ZM18,4.5c1.38,0,2.5,1.12,2.5,2.5s-1.12,2.5-2.5,2.5-2.5-1.12-2.5-2.5,1.12-2.5,2.5-2.5Z"/>
  <path class="cls-1" d="M17,7.5h.5v.5c0,.28.22.5.5.5s.5-.22.5-.5v-.5h.5c.28,0,.5-.22.5-.5s-.22-.5-.5-.5h-.5v-.5c0-.28-.22-.5-.5-.5s-.5.22-.5.5v.5h-.5c-.28,0-.5.22-.5.5s.22.5.5.5Z"/>
</svg>